<svg height="99.433" viewBox="0 0 375.484 99.433" width="375.484" xmlns="http://www.w3.org/2000/svg"><g fill="none" stroke="#4d4d4d" stroke-miterlimit="10"><path d="m556.176 6.181h-.437a4.326 4.326 0 0 1 -3.2-1.554c-1.311-1.36-3.642-.874-4.224 1.554-.728 3.059-4.321 3.059-5.05 0-.728-3.059-4.321-3.059-5.05 0-.728 3.059-4.321 3.059-5.05 0l-1.068-4.37a1.465 1.465 0 0 0 -2.913 0l-1.068 4.37c-.728 3.059-4.321 3.059-5.05 0-.728-3.059-4.321-3.059-5.05 0l-1.262 5.05a1.293 1.293 0 0 1 -2.573 0l-1.262-5.05c-.728-3.059-4.321-3.059-5.05 0-.728 3.059-4.321 3.059-5.05 0-.583-2.379-2.913-2.913-4.224-1.554a4.686 4.686 0 0 1 -3.2 1.554h-.495" transform="translate(-276.492)"/><path d="m793.295 9.725a5.6 5.6 0 0 1 -3.739-1.505 3.185 3.185 0 0 0 -5.2 1.457v.049a3.186 3.186 0 0 1 -6.118 0v-.05a3.214 3.214 0 0 0 -5.341-1.36 4.136 4.136 0 0 1 -2.962 1.36h-.34" transform="translate(-417.811 -3.544)"/><path d="m73.18 120.5-5.158-40.443c-.262-1.942-2.392-1.942-2.654 0l-5.2 40.3c-.262 1.942-2.392 1.942-2.654 0l-5.002-39.184c-.262-1.942-2.392-1.942-2.654 0l-5.008 39.136c-.262 1.942-2.392 1.942-2.654 0l-5.008-39.136c-.262-1.942-2.392-1.942-2.654 0l-5.008 39.135c-.262 1.942-2.392 1.942-2.654 0l-5.008-39.135c-.262-1.942-2.392-1.942-2.654 0l-5.01 39.136c-.262 1.942-2.392 1.942-2.654 0l-1.943-15.1c-.374-2.865-2.28-5-4.522-5h-5.081" transform="translate(0 -40.179)"/><path d="m307.055 40.2 6.749 1.894a7.039 7.039 0 0 1 4.856 8.691l-.777 2.816a7.072 7.072 0 0 0 1.8 6.895l2.039 2.039a7 7 0 0 1 0 9.954l-.923.923a7.112 7.112 0 0 0 -.923 8.837l.728 1.117a7.052 7.052 0 0 1 -2.039 9.76l-2.719 1.748a7.032 7.032 0 0 0 -3.2 5.875v3.108a7.078 7.078 0 0 1 -7.186 7.04l-2.816-.049a7.155 7.155 0 0 0 -5.1 2.039l-2.865 2.865a7 7 0 0 1 -9.954 0l-3.253-3.253a2.433 2.433 0 0 0 -3.4 0l-5.875 5.875a3.429 3.429 0 0 1 -4.807 0l-5-5a3.546 3.546 0 0 0 -5.05 0l-4.127 4.127a4.689 4.689 0 0 1 -6.652 0l-6.561-6.701" transform="translate(-145.358 -20.424)"/></g></svg>