<svg height="204.725" viewBox="0 0 773.316 204.725" width="773.316" xmlns="http://www.w3.org/2000/svg"><g fill="none" stroke="#4d4d4d" stroke-miterlimit="10" stroke-width="2" transform="translate(-45.084 .5)"><path d="m621.1 12.2h-.9a8.909 8.909 0 0 1 -6.6-3.2c-2.7-2.8-7.5-1.8-8.7 3.2-1.5 6.3-8.9 6.3-10.4 0s-8.9-6.3-10.4 0-8.9 6.3-10.4 0l-2.2-9c-.9-3.6-5.1-3.6-6 0l-2.2 9c-1.5 6.3-8.9 6.3-10.4 0s-8.9-6.3-10.4 0l-2.6 10.4c-.8 3.2-4.5 3.2-5.3 0l-2.6-10.4c-1.5-6.3-8.9-6.3-10.4 0s-8.9 6.3-10.4 0c-1.2-4.9-6-6-8.7-3.2a9.651 9.651 0 0 1 -6.6 3.2h-1"/><path d="m818.4 12.2a11.528 11.528 0 0 1 -7.7-3.1 6.56 6.56 0 0 0 -10.7 3v.1a6.562 6.562 0 0 1 -12.6 0v-.1a6.62 6.62 0 0 0 -11-2.8 8.518 8.518 0 0 1 -6.1 2.8h-.7"/><path d="m150.716 164.9-10.622-83.3c-.539-4-4.926-4-5.465 0l-10.7 83c-.539 4-4.926 4-5.465 0l-10.315-80.7c-.539-4-4.926-4-5.465 0l-10.315 80.6c-.539 4-4.926 4-5.465 0l-10.314-80.6c-.539-4-4.926-4-5.465 0l-10.315 80.6c-.539 4-4.926 4-5.465 0l-10.315-80.6c-.539-4-4.926-4-5.465 0l-10.315 80.6c-.539 4-4.926 4-5.465 0l-4-31.1c-.77-5.9-4.7-10.3-9.314-10.3h-10.471" transform="translate(45.084)"/><path d="m378.1 40.2 13.9 3.9a14.5 14.5 0 0 1 10 17.9l-1.6 5.8a14.564 14.564 0 0 0 3.7 14.2l4.2 4.2a14.425 14.425 0 0 1 0 20.5l-1.9 1.9a14.647 14.647 0 0 0 -1.9 18.2l1.5 2.3a14.524 14.524 0 0 1 -4.2 20.1l-5.6 3.6a14.482 14.482 0 0 0 -6.6 12.1v6.4a14.576 14.576 0 0 1 -14.8 14.5l-5.8-.1a14.735 14.735 0 0 0 -10.5 4.2l-5.9 5.9a14.426 14.426 0 0 1 -20.5 0l-6.7-6.7a5.011 5.011 0 0 0 -7 0l-12.1 12.1a7.062 7.062 0 0 1 -9.9 0l-10.3-10.3a7.3 7.3 0 0 0 -10.4 0l-8.5 8.5a9.657 9.657 0 0 1 -13.7 0l-13.5-13.8"/></g></svg>