<svg height="40.691" viewBox="0 0 68.595 40.691" width="68.595" xmlns="http://www.w3.org/2000/svg"><path d="m-645.661 708.7a9.069 9.069 0 0 1 11.961-5 9.027 9.027 0 0 1 4.969 11.221 9.133 9.133 0 0 1 -12.178 5.33v12.07h-5.311v-15.67c-2.154 2.963-4.959 4.569-8.608 4.268s-6.145-2.311-7.692-5.692c-1.692 3.609-4.443 5.714-8.436 5.713s-6.73-2.077-8.44-5.719c-.073.141-.121.223-.161.309a9 9 0 0 1 -10.11 5.242 8.989 8.989 0 0 1 -7.157-8.93c-.034-4.02-.008-8.041-.009-12.061q0-3.757 0-7.513c0-.2.022-.4.037-.64h5.287v.8q0 9.753 0 19.505a3.667 3.667 0 0 0 3.158 3.684 3.689 3.689 0 0 0 4.1-2.709c.077-.283.111-.577.179-.937h4.1a9.021 9.021 0 0 1 2.907-6.606 8.773 8.773 0 0 1 4.766-2.3 9.085 9.085 0 0 1 9.761 5.633c1.694-3.605 4.441-5.7 8.428-5.706s6.735 2.082 8.449 5.708zm-8.446 6.945a3.675 3.675 0 0 0 3.707-3.645 3.689 3.689 0 0 0 -3.715-3.717 3.711 3.711 0 0 0 -3.684 3.692 3.7 3.7 0 0 0 3.692 3.675zm-16.847 0a3.7 3.7 0 0 0 3.7-3.667 3.709 3.709 0 0 0 -3.67-3.7 3.7 3.7 0 0 0 -3.733 3.706 3.694 3.694 0 0 0 3.704 3.665zm33.739 0a3.66 3.66 0 0 0 3.666-3.685 3.673 3.673 0 0 0 -3.738-3.686 3.679 3.679 0 0 0 -3.634 3.726 3.668 3.668 0 0 0 3.707 3.65z" transform="translate(696.838 -691.627)"/></svg>