<svg height="57.541" viewBox="0 0 97 57.541" width="97" xmlns="http://www.w3.org/2000/svg"><path d="m-624.469 715.776a12.824 12.824 0 0 1 16.921-7.08 12.765 12.765 0 0 1 7.026 15.867c-1.864 5.535-8.675 10.779-17.221 7.537v17.068h-7.51v-22.155c-3.046 4.19-7.012 6.461-12.172 6.035-5.143-.425-8.69-3.268-10.878-8.049-2.393 5.1-6.283 8.081-11.93 8.079-5.629 0-9.517-2.938-11.935-8.088-.1.2-.171.316-.228.438a12.73 12.73 0 0 1 -14.3 7.412 12.712 12.712 0 0 1 -10.121-12.628c-.048-5.685-.012-11.371-.012-17.056q0-5.312 0-10.624c0-.285.032-.569.052-.905h7.477v1.136q0 13.792 0 27.583a5.185 5.185 0 0 0 4.466 5.209 5.217 5.217 0 0 0 5.793-3.831c.108-.4.158-.816.253-1.326h5.8a12.756 12.756 0 0 1 4.11-9.342 12.406 12.406 0 0 1 6.739-3.248c4.986-.759 10.9 1.456 13.8 7.965 2.4-5.1 6.28-8.065 11.918-8.069s9.529 2.939 11.952 8.072zm-11.943 9.822a5.2 5.2 0 0 0 5.241-5.166 5.217 5.217 0 0 0 -5.253-5.257 5.248 5.248 0 0 0 -5.209 5.221 5.237 5.237 0 0 0 5.221 5.204zm-23.823 0a5.227 5.227 0 0 0 5.235-5.187 5.244 5.244 0 0 0 -5.19-5.237 5.236 5.236 0 0 0 -5.279 5.241 5.224 5.224 0 0 0 5.234 5.185zm47.71 0a5.176 5.176 0 0 0 5.185-5.211 5.194 5.194 0 0 0 -5.287-5.213 5.2 5.2 0 0 0 -5.14 5.266 5.186 5.186 0 0 0 5.242 5.16z" fill="#fff" transform="translate(696.838 -691.627)"/></svg>