<?xml version="1.0" standalone="no"?>
<!DOCTYPE svg PUBLIC "-//W3C//DTD SVG 20010904//EN"
 "http://www.w3.org/TR/2001/REC-SVG-20010904/DTD/svg10.dtd">
<svg version="1.0" xmlns="http://www.w3.org/2000/svg"
 width="700.000000pt" height="700.000000pt" viewBox="0 0 700.000000 700.000000"
 preserveAspectRatio="xMidYMid meet">
<metadata>
Created by potrace 1.11, written by Peter Selinger 2001-2013
</metadata>
<g transform="translate(0.000000,700.000000) scale(0.100000,-0.100000)"
fill="#000000" stroke="none">
<path d="M3278 6995 c-1 -1 -41 -5 -88 -9 -47 -4 -96 -8 -110 -10 -14 -2 -47
-7 -75 -11 -27 -3 -63 -9 -80 -11 -29 -4 -249 -51 -270 -57 -5 -2 -26 -7 -45
-11 -19 -4 -55 -15 -80 -23 -25 -8 -52 -16 -60 -18 -90 -20 -330 -116 -501
-199 -220 -107 -322 -168 -514 -307 -423 -307 -765 -691 -1017 -1144 -48 -86
-148 -289 -148 -301 0 -2 -11 -27 -24 -56 -43 -96 -112 -298 -142 -413 -4 -16
-8 -34 -10 -40 -5 -16 -25 -98 -30 -120 -39 -194 -47 -242 -60 -350 -26 -234
-26 -641 1 -829 3 -17 7 -49 9 -71 10 -83 18 -131 26 -165 5 -19 12 -48 14
-65 27 -151 108 -417 186 -610 49 -123 173 -370 235 -468 30 -49 55 -92 55
-97 0 -4 3 -10 8 -12 4 -2 29 -36 57 -77 27 -41 68 -99 92 -130 102 -135 145
-184 279 -322 145 -150 250 -243 404 -360 47 -35 87 -67 88 -71 2 -5 8 -8 12
-8 5 0 56 -31 114 -70 57 -38 108 -70 112 -70 4 0 15 -6 23 -14 26 -23 327
-171 446 -219 257 -104 568 -189 820 -222 22 -2 56 -7 75 -10 194 -27 657 -27
850 1 432 63 756 160 1115 335 66 32 150 76 187 99 37 22 70 40 73 40 3 0 11
5 18 10 7 6 64 45 127 86 244 162 489 376 673 589 33 39 63 72 66 75 4 3 22
25 41 50 19 25 38 50 43 55 121 150 294 433 387 630 106 226 197 485 246 698
2 9 6 27 9 40 14 60 55 299 60 352 4 33 9 71 11 85 9 46 11 524 4 605 -15 153
-21 210 -25 225 -2 8 -7 35 -10 60 -17 129 -80 384 -136 552 -395 1176 -1386
2058 -2598 2313 -68 14 -140 28 -160 30 -20 3 -47 7 -61 10 -13 2 -52 7 -86
11 -33 3 -74 8 -90 10 -32 5 -540 14 -546 9z m432 -1406 c151 -17 154 -17 290
-49 631 -149 1187 -623 1436 -1225 75 -182 124 -369 148 -560 14 -111 15 -426
1 -515 -62 -416 -203 -747 -446 -1050 -102 -127 -226 -251 -329 -330 -25 -19
-47 -37 -50 -41 -3 -4 -50 -36 -105 -72 -261 -170 -524 -272 -835 -323 -135
-22 -437 -26 -580 -8 -879 112 -1595 762 -1789 1624 -37 165 -49 293 -46 490
3 181 5 207 25 320 6 30 13 69 15 85 35 196 146 472 270 670 299 477 744 798
1300 939 77 19 130 28 275 45 83 10 335 10 420 0z"/>
</g>
</svg>
