<svg height="14.952" viewBox="0 0 18.4 14.952" width="18.4" xmlns="http://www.w3.org/2000/svg"><path d="m17.316 6.246c.008.162.011.326.011.488a10.667 10.667 0 0 1 -10.74 10.742 10.677 10.677 0 0 1 -5.787-1.697 7.658 7.658 0 0 0 .9.053 7.577 7.577 0 0 0 4.688-1.615 3.779 3.779 0 0 1 -3.526-2.617 3.858 3.858 0 0 0 .71.066 3.786 3.786 0 0 0 .995-.131 3.779 3.779 0 0 1 -3.028-3.7v-.054a3.766 3.766 0 0 0 1.71.473 3.778 3.778 0 0 1 -1.168-5.041 10.716 10.716 0 0 0 7.781 3.945 3.813 3.813 0 0 1 -.1-.861 3.777 3.777 0 0 1 6.538-2.582 7.6 7.6 0 0 0 2.4-.916 3.789 3.789 0 0 1 -1.66 2.088 7.551 7.551 0 0 0 2.16-.594 7.623 7.623 0 0 1 -1.884 1.953z" fill="#fff" transform="translate(-.8 -2.524)"/></svg>